<svg width="512" height="512" viewBox="0 0 512 512" fill="none" xmlns="http://www.w3.org/2000/svg">
<g clip-path="url(#clip0_0_802)">
<rect width="512" height="512" rx="150" fill="url(#paint0_linear_0_802)"/>
<path fill-rule="evenodd" clip-rule="evenodd" d="M402.709 -154.5L663.713 112.705L387.507 251.026L261.288 124.807L402.709 -154.5Z" fill="url(#paint1_linear_0_802)"/>
<g opacity="0.658684" filter="url(#filter0_f_0_802)">
<ellipse cx="333.286" cy="177.786" rx="76" ry="13.5" transform="rotate(45 333.286 177.786)" fill="#F99D3B"/>
</g>
<g filter="url(#filter1_i_0_802)">
<mask id="path-4-inside-1_0_802" fill="white">
<path fill-rule="evenodd" clip-rule="evenodd" d="M388.567 250.672L261.288 123.393L213.125 171.556C204.261 180.42 199.83 184.851 196.844 190.066C194.2 194.687 192.396 199.74 191.516 204.99C190.524 210.916 191.147 217.153 192.393 229.625L193.568 241.388L91.5118 343.445C87.9988 346.958 86.2423 348.714 84.8859 350.32C69.1502 368.951 69.1502 396.215 84.8859 414.846C86.2424 416.452 87.9988 418.208 91.5118 421.721C95.0248 425.234 96.7813 426.991 98.3873 428.347C117.018 444.083 144.283 444.083 162.913 428.347C164.519 426.991 166.276 425.234 169.788 421.721L272.379 319.131L282.847 320.043C295.138 321.115 301.284 321.651 307.117 320.621C312.284 319.709 317.252 317.9 321.797 315.276C326.925 312.314 331.288 307.952 340.012 299.227L388.567 250.672Z"/>
</mask>
<path d="M261.288 123.393L270.763 113.918L261.288 104.442L251.813 113.918L261.288 123.393ZM388.567 250.672L398.043 260.147L407.518 250.672L398.043 241.197L388.567 250.672ZM196.844 190.066L208.474 196.723L196.844 190.066ZM191.516 204.99L178.3 202.777L178.3 202.777L191.516 204.99ZM192.393 229.625L205.727 228.293L205.727 228.293L192.393 229.625ZM193.568 241.388L203.043 250.864L207.533 246.374L206.902 240.056L193.568 241.388ZM91.5118 343.445L100.987 352.92L100.987 352.92L91.5118 343.445ZM84.8859 350.32L74.6488 341.674L74.6488 341.674L84.8859 350.32ZM84.8859 414.846L95.123 406.199L84.8859 414.846ZM98.3873 428.347L107.034 418.11L98.3873 428.347ZM162.913 428.347L171.56 438.584L171.56 438.584L162.913 428.347ZM272.379 319.131L273.543 305.781L267.321 305.239L262.904 309.656L272.379 319.131ZM282.847 320.043L284.011 306.694L284.011 306.694L282.847 320.043ZM307.117 320.621L309.446 333.817H309.446L307.117 320.621ZM321.797 315.276L328.498 326.88L321.797 315.276ZM251.813 132.868L379.092 260.147L398.043 241.197L270.763 113.918L251.813 132.868ZM222.6 181.032L270.763 132.868L251.813 113.918L203.649 162.081L222.6 181.032ZM208.474 196.723C210.362 193.425 213.217 190.414 222.6 181.032L203.649 162.081C195.305 170.425 189.297 176.278 185.215 183.409L208.474 196.723ZM204.732 207.203C205.35 203.516 206.617 199.968 208.474 196.723L185.215 183.409C181.783 189.405 179.441 195.963 178.3 202.777L204.732 207.203ZM205.727 228.293C204.408 215.09 204.105 210.951 204.732 207.203L178.3 202.777C176.943 210.881 177.886 219.215 179.059 230.957L205.727 228.293ZM206.902 240.056L205.727 228.293L179.059 230.957L180.234 242.72L206.902 240.056ZM100.987 352.92L203.043 250.864L184.093 231.913L82.0366 333.969L100.987 352.92ZM95.123 358.967C96.0243 357.899 97.2812 356.626 100.987 352.92L82.0366 333.969C78.7165 337.289 76.4604 339.529 74.6488 341.674L95.123 358.967ZM95.123 406.199C83.6045 392.562 83.6045 372.604 95.123 358.966L74.6488 341.674C54.6959 365.297 54.6959 399.869 74.6488 423.492L95.123 406.199ZM100.987 412.246C97.2812 408.54 96.0243 407.266 95.123 406.199L74.6488 423.492C76.4604 425.637 78.7165 427.876 82.0366 431.197L100.987 412.246ZM107.034 418.11C105.967 417.209 104.693 415.952 100.987 412.246L82.0366 431.197C85.3567 434.517 87.5959 436.773 89.7408 438.584L107.034 418.11ZM154.267 418.11C140.629 429.629 120.671 429.629 107.034 418.11L89.7408 438.584C113.364 458.537 147.936 458.537 171.56 438.584L154.267 418.11ZM160.313 412.246C156.607 415.952 155.334 417.209 154.267 418.11L171.56 438.584C173.704 436.773 175.944 434.517 179.264 431.197L160.313 412.246ZM262.904 309.656L160.313 412.246L179.264 431.197L281.854 328.606L262.904 309.656ZM284.011 306.694L273.543 305.781L271.215 332.48L281.683 333.393L284.011 306.694ZM304.787 307.425C301.098 308.077 297.021 307.828 284.011 306.694L281.683 333.393C293.256 334.402 301.471 335.225 309.446 333.817L304.787 307.425ZM315.096 303.672C311.905 305.514 308.416 306.785 304.787 307.425L309.446 333.817C316.153 332.633 322.6 330.286 328.498 326.88L315.096 303.672ZM330.537 289.752C321.302 298.987 318.34 301.798 315.096 303.672L328.498 326.88C335.511 322.83 341.273 316.917 349.487 308.702L330.537 289.752ZM379.092 241.197L330.537 289.752L349.487 308.702L398.043 260.147L379.092 241.197Z" fill="url(#paint2_linear_0_802)" mask="url(#path-4-inside-1_0_802)"/>
</g>
<ellipse cx="323.69" cy="188.27" rx="90" ry="25.75" transform="rotate(45 323.69 188.27)" fill="#F9C454"/>
<circle cx="211.791" cy="301.595" r="10.8825" transform="rotate(90 211.791 301.595)" fill="#FCAF37"/>
</g>
<defs>
<filter id="filter0_f_0_802" x="223.469" y="67.969" width="219.634" height="219.634" filterUnits="userSpaceOnUse" color-interpolation-filters="sRGB">
<feFlood flood-opacity="0" result="BackgroundImageFix"/>
<feBlend mode="normal" in="SourceGraphic" in2="BackgroundImageFix" result="shape"/>
<feGaussianBlur stdDeviation="27.6132" result="effect1_foregroundBlur_0_802"/>
</filter>
<filter id="filter1_i_0_802" x="73.0841" y="123.393" width="315.483" height="316.756" filterUnits="userSpaceOnUse" color-interpolation-filters="sRGB">
<feFlood flood-opacity="0" result="BackgroundImageFix"/>
<feBlend mode="normal" in="SourceGraphic" in2="BackgroundImageFix" result="shape"/>
<feColorMatrix in="SourceAlpha" type="matrix" values="0 0 0 0 0 0 0 0 0 0 0 0 0 0 0 0 0 0 127 0" result="hardAlpha"/>
<feOffset/>
<feGaussianBlur stdDeviation="5"/>
<feComposite in2="hardAlpha" operator="arithmetic" k2="-1" k3="1"/>
<feColorMatrix type="matrix" values="0 0 0 0 1 0 0 0 0 1 0 0 0 0 1 0 0 0 0.05 0"/>
<feBlend mode="normal" in2="shape" result="effect1_innerShadow_0_802"/>
</filter>
<linearGradient id="paint0_linear_0_802" x1="5.2551" y1="10.5102" x2="5.2551" y2="512" gradientUnits="userSpaceOnUse">
<stop stop-color="#3D3E40"/>
<stop offset="1" stop-color="#252525"/>
</linearGradient>
<linearGradient id="paint1_linear_0_802" x1="402.709" y1="-154.5" x2="192.345" y2="55.8643" gradientUnits="userSpaceOnUse">
<stop stop-color="#FAD961" stop-opacity="0.01"/>
<stop offset="1" stop-color="#F9C454" stop-opacity="0.307745"/>
</linearGradient>
<linearGradient id="paint2_linear_0_802" x1="261.288" y1="123.393" x2="27.2357" y2="357.445" gradientUnits="userSpaceOnUse">
<stop stop-color="#F9C454"/>
<stop offset="1" stop-color="#FF991B"/>
</linearGradient>
<clipPath id="clip0_0_802">
<rect width="512" height="512" rx="150" fill="white"/>
</clipPath>
</defs>
</svg>
